Coordinates
version=1
nRows=29
nColumns=22
inDegrees=yes

Units are S.I. units (second, meters, Newtons, ...)
If the header above contains a line with 'inDegrees', this indicates whether rotational values are in degrees (yes) or radians (no).

endheader
time	pelvis_tilt	pelvis_list	pelvis_rotation	pelvis_tx	pelvis_ty	pelvis_tz	hip_flexion_r	hip_adduction_r	hip_rotation_r	knee_angle_r	ankle_angle_r	subtalar_angle_r	hip_flexion_l	hip_adduction_l	hip_rotation_l	knee_angle_l	ankle_angle_l	subtalar_angle_l	lumbar_extension	lumbar_bending	lumbar_rotation
      2.76000000	     16.94437039	    -15.54920469	     84.07798484	      0.33909135	      0.89760476	     -0.33366672	     10.84015808	     -3.87734219	      2.79737484	    -50.18925675	    -10.52653871	      8.39223253	     20.50547098	     -4.42582877	     -0.97139252	    -17.04118217	      4.75563771	     -4.40280078	      0.45695263	      7.10577082	     16.28416589
      2.77000000	     17.68855658	    -15.34637047	     87.57301083	      0.33879512	      0.89692056	     -0.33654011	     10.78398095	     -3.68596078	      2.77929995	    -49.26654307	    -10.27662746	      9.01836313	     19.99863519	     -4.17601273	     -2.00185747	    -15.67351891	      4.91355254	     -3.85758499	      1.02426985	      7.43478749	     15.04622420
      2.78000000	     18.44138751	    -15.08139772	     90.96753141	      0.33840086	      0.89601599	     -0.33916297	     10.73999237	     -3.47483867	      2.81212206	    -48.38922035	     -9.92650662	      9.61788524	     19.48376222	     -3.92969289	     -3.17211000	    -14.36247993	      5.13609150	     -3.37908401	      1.57268280	      7.76411583	     13.88779588
      2.79000000	     19.18766109	    -14.75704121	     94.27241801	      0.33789136	      0.89485541	     -0.34149880	     10.72015859	     -3.25789117	      2.88628777	    -47.57181711	     -9.42218058	     10.19641560	     18.97689406	     -3.66869285	     -4.42926831	    -13.12498284	      5.43475920	     -2.92857974	      2.10177899	      8.08539221	     12.80253533
      2.80000000	     19.91452284	    -14.37785948	     97.53476428	      0.33717669	      0.89339452	     -0.34345546	     10.74166613	     -3.06506280	      2.92723359	    -46.83432583	     -8.79015191	     10.56085552	     18.49796674	     -3.36312152	     -5.64964250	    -11.96927216	      5.83545749	     -2.65183105	      2.60962025	      8.39156561	     11.73283314
      2.81000000	     20.64457107	    -13.91526507	    100.76125478	      0.33625988	      0.89170953	     -0.34496097	     10.77448901	     -2.85524564	      2.96591851	    -46.15582431	     -8.04421236	     11.10647630	     18.05261290	     -3.05986972	     -6.86697613	    -10.94367459	      6.23978236	     -2.19637021	      3.05669131	      8.72199521	     10.70985157
      2.82000000	     21.32552763	    -13.39110234	    104.04611241	      0.33493061	      0.88969832	     -0.34593030	     10.82948298	     -2.73647772	      2.81842522	    -45.54772244	     -7.23481341	     11.28886040	     17.64824811	     -2.66508516	     -7.84459290	    -10.01035170	      6.71017639	     -2.06241529	      3.47444513	      9.02659862	      9.61310467
      2.83000000	     21.98484660	    -12.77001616	    107.38078182	      0.33326430	      0.88747092	     -0.34629761	     10.87397052	     -2.64463220	      2.54220491	    -44.99342554	     -6.38225456	     11.47025100	     17.25999642	     -2.24879667	     -8.60629266	     -9.17982836	      7.18262923	     -1.92355022	      3.81842464	      9.35553623	      8.45716704
      2.84000000	     22.55445151	    -12.07750678	    110.76141998	      0.33125981	      0.88501477	     -0.34608641	     10.90745551	     -2.66299417	      2.09918426	    -44.49131364	     -5.49366633	     11.55350348	     16.86253617	     -1.74829799	     -9.09402404	     -8.41684844	      7.71760947	     -1.88958987	      4.10576090	      9.63603295	      7.25782801
      2.85000000	     23.05029102	    -11.29560644	    114.17343685	      0.32902052	      0.88241808	     -0.34533369	     10.91071569	     -2.74453414	      1.51835778	    -44.03887724	     -4.59760381	     11.54913835	     16.42175333	     -1.22027458	     -9.29957160	     -7.70278263	      8.24635598	     -1.95006993	      4.31974058	      9.90708509	      6.00622166
      2.86000000	     23.45314664	    -10.42823216	    117.55394146	      0.32675497	      0.87978597	     -0.34414786	     10.88326786	     -2.86651786	      0.87449079	    -43.63409275	     -3.67931065	     11.37110735	     15.89951506	     -0.69444381	     -9.26799091	     -7.00365709	      8.75073767	     -2.17404176	      4.44004551	     10.15351952	      4.76120430
      2.87000000	     23.72180006	     -9.56245891	    120.85708668	      0.32460121	      0.87706183	     -0.34265992	     10.89997885	     -3.10395844	      0.18388026	    -43.31101104	     -2.75253461	     11.13152429	     15.33626805	     -0.12696359	     -9.04663048	     -6.32266751	      9.31048981	     -2.39575556	      4.53195736	     10.29215810	      3.59417787
      2.88000000	     23.90660786	     -8.62584309	    124.02868279	      0.32276313	      0.87445484	     -0.34101549	     10.91298833	     -3.30593026	     -0.43595663	    -43.05279573	     -1.74403847	     10.47956309	     14.66247735	      0.35346933	     -8.65375853	     -5.62463862	      9.83650180	     -2.85589500	      4.51259053	     10.42124493	      2.52740120
      2.89000000	     23.97519359	     -7.74016289	    127.07202588	      0.32127183	      0.87183614	     -0.33924663	     11.03728560	     -3.60332749	     -1.05319403	    -42.90785621	     -0.71715658	      9.62482901	     14.00768148	      0.83188564	     -8.19657779	     -5.00052887	     10.41968904	     -3.27338519	      4.47489803	     10.43576368	      1.58229124
      2.90000000	     23.99117573	     -6.86953869	    129.98984452	      0.32016070	      0.86929308	     -0.33741012	     11.25667966	     -3.89097521	     -1.60647094	    -42.83719877	      0.37170964	      8.59276609	     13.34763797	      1.22804345	     -7.61392409	     -4.39540785	     10.99439115	     -3.62025450	      4.40589156	     10.42223304	      0.74292796
      2.91000000	     23.94202779	     -6.02427047	    132.79652288	      0.31935814	      0.86684519	     -0.33549515	     11.56708147	     -4.19963681	     -2.12387006	    -42.83631253	      1.50149791	      7.32132658	     12.70127703	      1.56610851	     -6.94494602	     -3.84647689	     11.58750495	     -3.92699524	      4.29911630	     10.36854453	     -0.01104499
      2.92000000	     23.82870709	     -5.21067815	    135.50706892	      0.31878528	      0.86450419	     -0.33347145	     11.96263376	     -4.54295260	     -2.62387534	    -42.89042019	      2.65890772	      5.84447953	     12.07993897	      1.86059878	     -6.21248794	     -3.37076532	     12.20491645	     -4.18485672	      4.15461450	     10.28050414	     -0.69510662
      2.93000000	     23.66131305	     -4.42015605	    138.13595912	      0.31835636	      0.86229637	     -0.33132779	     12.41815808	     -4.90912986	     -3.11401480	    -42.96001198	      3.82931667	      4.25984367	     11.47681667	      2.10763080	     -5.42113697	     -2.96095987	     12.82950649	     -4.38929440	      3.97280753	     10.18282422	     -1.32524233
      2.94000000	     23.43439172	     -3.66184941	    140.67998511	      0.31805169	      0.86025047	     -0.32906611	     12.92870125	     -5.30209647	     -3.57511274	    -43.02976562	      4.98779742	      2.63818858	     10.89849297	      2.32163402	     -4.58472492	     -2.63456007	     13.46177200	     -4.54992371	      3.74958187	     10.06914519	     -1.90993381
      2.95000000	     23.15842957	     -2.92891448	    143.12874762	      0.31788420	      0.85840673	     -0.32671958	     13.48750167	     -5.69429588	     -3.98213458	    -43.07317292	      6.11811276	      1.07066590	     10.34663558	      2.48958792	     -3.70512662	     -2.39552436	     14.07343503	     -4.67629951	      3.48072219	      9.95521856	     -2.41986166
      2.96000000	     22.84119541	     -2.22414094	    145.46523937	      0.31787176	      0.85680155	     -0.32436739	     14.09209917	     -6.05509513	     -4.27870302	    -43.06006235	      7.20038542	     -0.38573052	      9.81843927	      2.60738536	     -2.79152223	     -2.23177417	     14.65666717	     -4.78390463	      3.17059609	      9.84382361	     -2.86419994
      2.97000000	     22.48268146	     -1.55500900	    147.67189698	      0.31805856	      0.85547899	     -0.32206943	     14.75171531	     -6.36752746	     -4.41695652	    -42.98127251	      8.20391781	     -1.67660656	      9.32511070	      2.67905423	     -1.82851762	     -2.16197683	     15.19583346	     -4.88285820	      2.81269420	      9.72510412	     -3.21650034
      2.98000000	     22.08776262	     -0.92368957	    149.73465104	      0.31846699	      0.85447252	     -0.31988786	     15.47264998	     -6.60652533	     -4.34935417	    -42.82472876	      9.11796106	     -2.75025945	      8.86935950	      2.70457610	     -0.81214163	     -2.18637621	     15.67331210	     -4.97531561	      2.40321907	      9.59783682	     -3.46681083
      2.99000000	     21.65624298	     -0.33626444	    151.64360193	      0.31910145	      0.85380974	     -0.31787997	     16.25654218	     -6.76069875	     -4.04428948	    -42.58139952	      9.92176396	     -3.59236232	      8.45188066	      2.69162800	      0.25603223	     -2.30344750	     16.08077862	     -5.04982790	      1.93697853	      9.45187452	     -3.60756948
      3.00000000	     21.18713790	      0.19380678	    153.39892209	      0.31993798	      0.85348733	     -0.31608026	     17.11147072	     -6.83959989	     -3.49583695	    -42.25873935	     10.58369706	     -4.14437540	      8.06735641	      2.65915522	      1.37406542	     -2.49690698	     16.42759184	     -5.06367597	      1.41511170	      9.27016376	     -3.64842262
      3.01000000	     20.68447681	      0.65753246	    154.97915090	      0.32093570	      0.85350436	     -0.31456513	     18.02362204	     -6.83481116	     -2.66899778	    -41.82727648	     11.17341246	     -4.44762407	      7.72123969	      2.61853768	      2.44760383	     -2.77368924	     16.71383377	     -5.00104539	      0.84493166	      9.04211414	     -3.55928872
      3.02000000	     20.15822005	      1.07568784	    156.38832333	      0.32203776	      0.85383429	     -0.31336037	     18.99156170	     -6.73258710	     -1.61188453	    -41.30946117	     11.65907914	     -4.57970370	      7.37251732	      2.55044174	      3.47950590	     -3.06345527	     16.95414824	     -4.84834729	      0.22381943	      8.79222400	     -3.35506003
      3.03000000	     19.60351720	      1.44925681	    157.63366753	      0.32314028	      0.85446454	     -0.31249585	     19.97497028	     -6.54594597	     -0.36080503	    -40.67081664	     12.02458858	     -4.52321110	      6.99125870	      2.46249686	      4.42157346	     -3.33081737	     17.15464621	     -4.53110395	     -0.44024377	      8.51334869	     -3.05119627
      3.04000000	     19.03935828	      1.78122728	    158.71763028	      0.32419223	      0.85532025	     -0.31196632	     20.98184546	     -6.28408594	      1.03982297	    -39.92191504	     12.26959685	     -4.18728775	      6.58968585	      2.35381462	      5.21029769	     -3.57472042	     17.35671657	     -3.99747906	     -1.12316609	      8.21486248	     -2.66062909
